<svg xmlns="http://www.w3.org/2000/svg" viewBox="0 0 128 128" role="img" aria-label="HIMASANTIKA logo">
  <defs>
    <linearGradient id="bg" x1="0" x2="1" y1="0" y2="1">
      <stop offset="0%" stop-color="#101869"/>
      <stop offset="100%" stop-color="#c3503b"/>
    </linearGradient>
  </defs>
  <rect width="128" height="128" rx="28" fill="url(#bg)"/>
  <circle cx="64" cy="64" r="46" fill="rgba(255,255,255,0.12)" stroke="rgba(255,255,255,0.55)" stroke-width="2"/>
  <path d="M35 82V48h18c9 0 15 5 15 13 0 8-6 13-15 13H43v8h-8zm8-15h10c4 0 7-2 7-5s-3-5-7-5H43v10z" fill="#fff"/>
  <path d="M63 82V48h8l14 21V48h8v34h-8L71 61v21h-8z" fill="#fff"/>
  <path d="M92 82V48h8v34h-8z" fill="#f8d3a1"/>
  <path d="M42 35h44c7 0 12 5 12 12v1H30v-1c0-7 5-12 12-12z" fill="#f7b267" opacity="0.9"/>
</svg>
